# xmcd
#
# Track frame offsets:
#	150
#	22575
#	40650
#	52650
#	65625
#	80250
#	95625
#	111075
#	142275
#	159675
#	175500
#	206625
#	228675
#
# Disc length: 3272 seconds
# Revision: 0
# Processed by: cddbd v1.5.2PL0 Copyright (c) Steve Scherf et al.
# Submitted via: dBpowerAMP V12.0
#
DISCID=a60cc60d
DTITLE=Choir of Trinity College . Cambridge -  Richard Marlow - The Great Tradition ~ Choral Music from Four Centuries
DYEAR=1993
DGENRE=Classical
TTITLE0=I was Glad
TTITLE1=Magnificat in G
TTITLE2=Heileg, heilig, heilig
TTITLE3=Ave verum corpus
TTITLE4=Hodie Christus natus est
TTITLE5=The Shepherds' Farewell
TTITLE6=Sanctus (from Requiem)
TTITLE7=Dixit Dominus
TTITLE8=Herr, unser Herrscher
TTITLE9=BWV 226: Mottete "Der Geist hilft unsrer Schwachheit auf" - 01. Der Geist hilft
TTITLE10=Benedictus, Op. 34
TTITLE11=Geistliches Lied
TTITLE12=In Paradisum
EXTD=
EXTT0=
EXTT1=
EXTT2=
EXTT3=
EXTT4=
EXTT5=
EXTT6=
EXTT7=
EXTT8=
EXTT9=
EXTT10=
EXTT11=
EXTT12=
PLAYORDER=
